<?xml version="1.0" encoding="UTF-8" standalone="no"?>
<!-- Created with Inkscape (http://www.inkscape.org/) -->

<svg
   xmlns:dc="http://purl.org/dc/elements/1.1/"
   xmlns:cc="http://creativecommons.org/ns#"
   xmlns:rdf="http://www.w3.org/1999/02/22-rdf-syntax-ns#"
   xmlns:svg="http://www.w3.org/2000/svg"
   xmlns="http://www.w3.org/2000/svg"
   xmlns:sodipodi="http://sodipodi.sourceforge.net/DTD/sodipodi-0.dtd"
   xmlns:inkscape="http://www.inkscape.org/namespaces/inkscape"
   width="512"
   height="512"
   viewBox="0 0 135.46666 135.46667"
   version="1.1"
   id="svg3870"
   inkscape:version="0.92.0 r15299"
   sodipodi:docname="icon.svg">
  <defs
     id="defs3864" />
  <sodipodi:namedview
     id="base"
     pagecolor="#ffffff"
     bordercolor="#666666"
     borderopacity="1.0"
     inkscape:pageopacity="0.0"
     inkscape:pageshadow="2"
     inkscape:zoom="0.98994949"
     inkscape:cx="304.28571"
     inkscape:cy="247.14286"
     inkscape:document-units="mm"
     inkscape:current-layer="layer1"
     showgrid="false"
     units="px"
     inkscape:window-width="1600"
     inkscape:window-height="853"
     inkscape:window-x="-4"
     inkscape:window-y="-4"
     inkscape:window-maximized="1" />
  <metadata
     id="metadata3867">
    <rdf:RDF>
      <cc:Work
         rdf:about="">
        <dc:format>image/svg+xml</dc:format>
        <dc:type
           rdf:resource="http://purl.org/dc/dcmitype/StillImage" />
        <dc:title></dc:title>
      </cc:Work>
    </rdf:RDF>
  </metadata>
  <g
     inkscape:label="Camada 1"
     inkscape:groupmode="layer"
     id="layer1"
     transform="translate(0,-161.53332)">
    <path
       style="fill:#1a1a1a;fill-opacity:1;stroke-width:0.24714993"
       d="M 18.437067,164.8468 3.243542,280.32651 119.42303,295.6121 134.61656,180.1324 Z m 5.700072,5.84668 103.705531,13.6444 L 114.09931,288.7955 10.393775,275.15109 Z"
       id="rect3874-3"
       inkscape:connector-curvature="0" />
    <rect
       style="fill:#666666;fill-opacity:1;stroke-width:0.24665186"
       id="rect3961"
       width="107.19091"
       height="107.1002"
       x="42.120255"
       y="162.12094"
       transform="rotate(7.495287)" />
    <g
       id="g3953"
       transform="matrix(0.89534887,0.1178,-0.1178,0.89534887,-20.444177,3.3071182)">
      <path
         style="fill:#9d9d9d;stroke-width:0.41692248"
         d="m 88.998808,278.9754 c 0.26795,-1.67568 0.21837,-1.78803 -1.07709,-2.4409 -0.74688,-0.3764 -2.26333,-1.43692 -3.36988,-2.35671 -2.61866,-2.17671 -4.65476,-2.64556 -7.67544,-1.76742 -1.25651,0.36528 -2.37982,0.56888 -2.49625,0.45246 -0.11643,-0.11643 0.37278,-0.92074 1.08712,-1.78736 0.71434,-0.86662 1.2988,-1.8484 1.2988,-2.18173 0,-0.76115 -2.58362,-7.12322 -2.89624,-7.13187 -0.12687,-0.003 -0.50718,-0.18124 -0.84513,-0.39496 -0.5222,-0.33024 -0.4792,-0.53273 0.28641,-1.34861 1.29213,-1.37699 1.82371,-7.06418 0.7692,-8.2294 -0.68106,-0.75257 -0.67344,-0.8368 0.15031,-1.66055 1.07635,-1.07635 1.07792,-1.32199 0.0171,-2.67063 l -0.85069,-1.08147 1.68494,-1.11504 c 2.42767,-1.60656 3.50437,-3.5308 3.24805,-5.80483 -0.20304,-1.8014 -0.1899,-1.82413 0.92525,-1.6011 0.62217,0.12444 1.97385,-0.0598 3.00372,-0.40949 1.02988,-0.34965 3.07642,-0.75334 4.54787,-0.89709 4.50106,-0.43973 4.55152,-0.46298 4.55152,-2.09681 0,-1.51236 0.32976,-1.7886 1.15273,-0.96562 0.3696,0.36959 0.68844,0.0126 1.33416,-1.4938 0.46667,-1.0887 0.84849,-2.16715 0.84849,-2.39655 0,-0.22941 0.23452,-0.34 0.52115,-0.24576 0.29257,0.0962 0.61259,1.15186 0.72962,2.40679 l 0.20846,2.23543 2.70999,-0.0993 c 2.481932,-0.0909 2.803792,-0.21139 3.824462,-1.43129 1.23337,-1.47412 1.30763,-1.4611 1.8833,0.33035 0.57376,1.78552 2.13366,1.86511 4.66894,0.23822 1.09754,-0.70429 2.13471,-1.28052 2.30483,-1.28052 0.17013,0 0.18963,0.54498 0.0433,1.21107 -0.15893,0.72358 -0.078,1.32727 0.20105,1.49973 0.25687,0.15876 0.64788,0.69256 0.8689,1.18623 0.41675,0.93087 2.05807,3.36653 2.9791,4.4209 0.29061,0.33267 0.62366,1.08314 0.74011,1.66769 0.20079,1.0079 0.39221,1.07779 3.7043,1.35249 1.92091,0.15931 3.74553,0.38673 4.05469,0.50537 0.89948,0.34516 0.20108,1.4193 -1.2326,1.89577 -0.72497,0.24093 -1.83198,0.85976 -2.46001,1.37516 -1.11029,0.91118 -1.13445,1.02208 -0.87347,4.00908 l 0.2684,3.07197 1.87362,1.09725 c 1.03049,0.60349 2.36163,1.51346 2.95808,2.02215 l 1.08447,0.9249 -2.62647,0.0132 c -4.40913,0.0221 -6.47439,1.73533 -6.0356,5.00677 0.18944,1.4124 0.0915,1.86575 -0.47133,2.1807 -0.39078,0.21869 -0.88307,0.85151 -1.09399,1.40627 -0.27477,0.72269 -0.70217,1.00865 -1.50759,1.00865 -0.78527,0 -1.65725,0.55644 -2.89297,1.84612 -1.78242,1.86022 -1.97494,2.38717 -2.87827,7.87793 -0.2185,1.32815 -0.36246,1.5109 -0.863,1.09549 -0.33041,-0.27422 -0.60075,-0.72795 -0.60075,-1.00829 0,-0.28035 -0.38362,-0.85689 -0.85248,-1.28121 -0.75639,-0.68452 -1.06255,-0.7153 -2.71598,-0.27308 -1.02492,0.27413 -3.06923,0.49841 -4.542902,0.49841 -1.47368,0 -2.79157,0.18147 -2.92865,0.40327 -0.13707,0.2218 -0.76686,0.29974 -1.39953,0.17321 -0.9495,-0.18991 -1.54102,0.12123 -3.38866,1.78242 l -2.23836,2.01248 z"
         id="path3942"
         inkscape:connector-curvature="0" />
      <path
         style="fill:#939393;stroke-width:0.41692248"
         d="m 89.998078,277.44193 c 0.15656,-0.81898 -0.074,-1.12934 -1.25531,-1.68991 -0.79589,-0.37768 -2.416,-1.51375 -3.60024,-2.52459 -2.43297,-2.07675 -4.00147,-2.5263 -6.69746,-1.91958 -1.02567,0.23082 -1.93183,0.35269 -2.0137,0.27082 -0.0819,-0.0819 0.16891,-0.63381 0.55729,-1.22654 0.42788,-0.65304 0.62248,-1.5298 0.49385,-2.22502 -0.31208,-1.6867 -2.3774,-6.49907 -3.00254,-6.99619 -0.43145,-0.34309 -0.37435,-0.63261 0.28544,-1.44741 0.71273,-0.88019 0.81051,-1.55816 0.71983,-4.99112 -0.0577,-2.18492 0.0415,-4.49608 0.22044,-5.13592 0.23508,-0.8405 0.13812,-1.37025 -0.34942,-1.90898 -0.82668,-0.91347 -0.85608,-1.30537 -0.0979,-1.30537 0.73296,0 3.50229,-3.04419 4.02857,-4.42841 0.21944,-0.57719 0.29608,-1.45947 0.1703,-1.96062 -0.21001,-0.83677 0.0451,-0.97641 3.12443,-1.71005 1.84422,-0.43938 3.47901,-0.67299 3.63288,-0.51912 0.15386,0.15386 0.0496,0.27976 -0.23161,0.27976 -0.68149,0 -5.0476,4.15095 -5.0476,4.79886 0,0.27977 -0.3333,0.95611 -0.74065,1.50298 -0.40736,0.54686 -1.08271,2.11999 -1.50079,3.49583 -0.41807,1.37585 -0.9066,2.79139 -1.08563,3.14565 -0.42595,0.84288 -0.11197,8.73288 0.37102,9.32313 0.20514,0.2507 0.58522,1.24962 0.84461,2.21982 0.25939,0.9702 0.88749,2.46539 1.39576,3.32264 1.28057,2.1598 5.62624,6.33357 7.38644,7.09426 0.80257,0.34684 1.93971,0.97192 2.52696,1.38905 0.58726,0.41714 1.55504,0.88074 2.15063,1.03022 l 1.0829,0.27179 -1.57578,1.42362 c -1.87365,1.69274 -2.04353,1.73257 -1.79269,0.4204 z m -0.30741,-12.67343 c 0,-1.25752 -0.29474,-1.87158 -1.42342,-2.96553 -1.93335,-1.87388 -3.68971,-5.91533 -3.83406,-8.82229 -0.0636,-1.28079 -0.17309,-2.50105 -0.2433,-2.71171 -0.13182,-0.39544 0.006,-0.57442 3.23955,-4.22168 1.55979,-1.7591 2.37219,-2.30136 4.28196,-2.85813 2.95063,-0.86022 5.76177,-0.57658 8.11641,0.81893 0.959832,0.56886 2.457852,1.42902 3.328922,1.91146 1.60703,0.89005 1.70388,1.02579 2.1312,2.98668 0.1651,0.75764 0.65129,1.24798 1.54704,1.56024 1.23116,0.42919 1.27134,0.50796 0.69892,1.37008 -0.46892,0.70623 -0.52258,1.38106 -0.23543,2.96092 0.29045,1.59805 0.24334,2.15175 -0.21513,2.52811 -0.32287,0.26505 -0.82673,1.09252 -1.1197,1.83883 -0.62192,1.5843 -2.64447,3.4667 -5.13187,4.77627 -1.458672,0.76796 -2.403372,0.92168 -5.512642,0.89703 -3.20119,-0.0254 -3.83231,0.0838 -4.29709,0.74348 -0.85162,1.20868 -1.33136,0.91584 -1.33136,-0.81269 z m 31.115492,-8.20414 c 0.18854,-0.49134 0.42047,-0.52244 1.13345,-0.15199 1.35644,0.7048 1.3511,0.76974 -0.0633,0.76974 -0.98346,0 -1.24846,-0.15298 -1.07011,-0.61775 z m -1.93092,-11.2298 c 0,-0.32485 -0.23452,-0.68527 -0.52115,-0.80093 -0.28663,-0.11566 0.69834,-0.21119 2.18884,-0.21228 l 2.71,-0.002 -1.66769,0.77201 c -2.05154,0.94969 -2.71,1.00878 -2.71,0.2432 z m -7.93607,-8.89434 c -0.33162,-0.51595 -0.83925,-0.93808 -1.12805,-0.93808 -0.72271,0 -0.66039,-1.03639 0.10029,-1.66769 0.51566,-0.42796 0.62538,-0.39012 0.62538,0.21568 0,0.40409 0.30183,0.9554 0.67072,1.22514 0.3689,0.26975 0.5951,0.85328 0.50267,1.29673 -0.15856,0.76079 -0.20207,0.75336 -0.77101,-0.13178 z"
         id="path3940"
         inkscape:connector-curvature="0" />
      <path
         style="fill:#111111;stroke-width:0.41692248"
         d="m 93.670788,264.26745 c -0.67727,-0.21332 -1.66225,-0.27973 -2.18884,-0.14756 -0.66226,0.16621 -0.95744,0.0576 -0.95744,-0.35228 0,-0.32592 -0.58723,-1.14362 -1.30496,-1.81712 -2.06397,-1.93676 -2.94602,-4.3556 -2.90879,-7.97677 0.0312,-3.03129 0.0829,-3.18396 1.7541,-5.18008 0.94709,-1.1312 2.12248,-2.27369 2.61198,-2.53885 1.60228,-0.868 5.92693,-1.85673 6.75357,-1.54406 0.44395,0.16792 1.98811,0.72348 3.431482,1.23458 2.18726,0.77451 2.71928,1.15658 3.1946,2.29419 0.31367,0.75071 0.98142,1.77603 1.48389,2.27851 0.66922,0.66921 0.95789,1.55012 1.07918,3.29321 0.28046,4.03047 -2.39341,8.17514 -6.33713,9.82294 -1.947542,0.81373 -5.084742,1.11422 -6.611642,0.63329 z"
         id="path3938"
         inkscape:connector-curvature="0" />
    </g>
    <g
       id="g3958"
       transform="matrix(-0.39111264,0.94312833,-0.94312833,-0.39111264,306.68598,243.96958)">
      <rect
         transform="rotate(37.275907)"
         ry="4.1320906"
         y="121.52401"
         x="131.24475"
         height="31.534376"
         width="71.115456"
         id="rect3878"
         style="fill:#ffffff;fill-opacity:1;stroke-width:0.21529268" />
      <rect
         transform="rotate(37.275907)"
         ry="0"
         y="131.74548"
         x="136.46423"
         height="12.396272"
         width="55.239525"
         id="rect3880"
         style="fill:#000000;fill-opacity:1;stroke-width:0.206534" />
      <path
         inkscape:connector-curvature="0"
         id="rect3884"
         d="m 72.345846,213.21463 -14.529384,19.08919 16.808987,-2.27986 z"
         style="fill:#000000;fill-opacity:1;stroke-width:0.21529268" />
    </g>
    <path
       style="fill:#e6e6e6;fill-opacity:1;stroke-width:0.24714993"
       d="M 16.226067,162.18052 1.03254,277.66023 117.21205,292.94582 132.40558,177.46611 Z m 5.700071,5.84667 L 125.63169,181.6716 111.88832,286.12921 8.1827746,272.48481 Z"
       id="rect3874"
       inkscape:connector-curvature="0" />
  </g>
</svg>
